<svg xmlns="http://www.w3.org/2000/svg" width="782" height="115" viewBox="0 0 782 115">
<g id="fir-0" transform="translate(41 0)">
<rect x="-3" y="88" width="6" height="16" rx="1" fill="#a78665"/>
<path d="M0 10 L-14 39 H-8 L-23 66 H-13 L-30 92 H30 L13 66 H23 L8 39 H14 Z" fill="#5d863d" stroke="#486537" stroke-width="1.5" stroke-linejoin="round"/>
</g>
<g id="fir-1" transform="translate(119 0)">
<rect x="-3" y="88" width="6" height="16" rx="1" fill="#a78665"/>
<path d="M0 10 L-14 39 H-8 L-23 66 H-13 L-30 92 H30 L13 66 H23 L8 39 H14 Z" fill="#5d863d" stroke="#486537" stroke-width="1.5" stroke-linejoin="round"/>
</g>
<g id="fir-2" transform="translate(197 0)">
<rect x="-3" y="88" width="6" height="16" rx="1" fill="#a78665"/>
<path d="M0 10 L-14 39 H-8 L-23 66 H-13 L-30 92 H30 L13 66 H23 L8 39 H14 Z" fill="#5d863d" stroke="#486537" stroke-width="1.5" stroke-linejoin="round"/>
</g>
<g id="fir-3" transform="translate(275 0)">
<rect x="-3" y="88" width="6" height="16" rx="1" fill="#a78665"/>
<path d="M0 10 L-14 39 H-8 L-23 66 H-13 L-30 92 H30 L13 66 H23 L8 39 H14 Z" fill="#5d863d" stroke="#486537" stroke-width="1.5" stroke-linejoin="round"/>
</g>
<g id="fir-4" transform="translate(353 0)">
<rect x="-3" y="88" width="6" height="16" rx="1" fill="#a78665"/>
<path d="M0 10 L-14 39 H-8 L-23 66 H-13 L-30 92 H30 L13 66 H23 L8 39 H14 Z" fill="#5d863d" stroke="#486537" stroke-width="1.5" stroke-linejoin="round"/>
</g>
<g id="fir-5" transform="translate(431 0)">
<rect x="-3" y="88" width="6" height="16" rx="1" fill="#a78665"/>
<path d="M0 10 L-14 39 H-8 L-23 66 H-13 L-30 92 H30 L13 66 H23 L8 39 H14 Z" fill="#5d863d" stroke="#486537" stroke-width="1.5" stroke-linejoin="round"/>
</g>
<g id="fir-6" transform="translate(509 0)">
<rect x="-3" y="88" width="6" height="16" rx="1" fill="#a78665"/>
<path d="M0 10 L-14 39 H-8 L-23 66 H-13 L-30 92 H30 L13 66 H23 L8 39 H14 Z" fill="#5d863d" stroke="#486537" stroke-width="1.5" stroke-linejoin="round"/>
</g>
<g id="fir-7" transform="translate(587 0)">
<rect x="-3" y="88" width="6" height="16" rx="1" fill="#a78665"/>
<path d="M0 10 L-14 39 H-8 L-23 66 H-13 L-30 92 H30 L13 66 H23 L8 39 H14 Z" fill="#5d863d" stroke="#486537" stroke-width="1.5" stroke-linejoin="round"/>
</g>
<g id="fir-8" transform="translate(665 0)">
<rect x="-3" y="88" width="6" height="16" rx="1" fill="#a78665"/>
<path d="M0 10 L-14 39 H-8 L-23 66 H-13 L-30 92 H30 L13 66 H23 L8 39 H14 Z" fill="#5d863d" stroke="#486537" stroke-width="1.5" stroke-linejoin="round"/>
</g>
<g id="fir-9" transform="translate(743 0)">
<rect x="-3" y="88" width="6" height="16" rx="1" fill="#a78665"/>
<path d="M0 10 L-14 39 H-8 L-23 66 H-13 L-30 92 H30 L13 66 H23 L8 39 H14 Z" fill="#5d863d" stroke="#486537" stroke-width="1.5" stroke-linejoin="round"/>
</g>
</svg>
